<?xml version="1.0" standalone="no"?>
<!DOCTYPE svg PUBLIC "-//W3C//DTD SVG 20010904//EN"
 "http://www.w3.org/TR/2001/REC-SVG-20010904/DTD/svg10.dtd">
<svg version="1.0" xmlns="http://www.w3.org/2000/svg"
 width="512.000000pt" height="512.000000pt" viewBox="0 0 512.000000 512.000000"
 preserveAspectRatio="xMidYMid meet">

<g transform="translate(0.000000,512.000000) scale(0.100000,-0.100000)"
fill="white" stroke="none">
<path d="M2540 4313 c-635 -82 -1166 -535 -1337 -1140 l-27 -93 -60 0 c-137 0
-351 -52 -478 -116 -218 -109 -413 -304 -522 -522 -99 -197 -137 -456 -101
-682 39 -239 150 -455 320 -625 172 -172 393 -284 632 -320 149 -23 3228 -22
3357 0 364 64 652 320 762 681 26 83 28 101 28 264 0 163 -2 181 -28 264 -58
190 -175 366 -320 482 -119 95 -242 152 -432 199 -7 2 -14 48 -18 115 -44 725
-554 1317 -1267 1470 -82 18 -142 23 -289 25 -102 2 -201 1 -220 -2z m379
-329 c117 -17 274 -65 373 -115 303 -151 538 -423 642 -741 49 -149 68 -290
64 -475 -3 -140 -1 -153 18 -179 40 -55 66 -66 169 -75 54 -5 122 -16 154 -24
266 -78 461 -336 461 -615 0 -236 -140 -463 -350 -568 -154 -77 -39 -73 -1843
-70 l-1612 3 -75 23 c-41 13 -115 44 -165 70 -73 38 -109 66 -191 147 -83 83
-108 116 -147 191 -72 141 -91 223 -91 384 0 110 4 149 22 214 79 276 296 494
574 577 63 19 98 22 263 23 208 1 219 4 255 62 11 17 29 79 40 138 49 251 157
465 325 645 289 306 695 447 1114 385z"/>
<path d="M1975 2640 l-110 -110 235 -235 235 -235 -233 -233 -232 -232 112
-113 113 -112 232 232 233 233 233 -233 232 -232 113 112 112 113 -232 232
-233 233 235 235 235 235 -113 112 -112 113 -235 -235 -235 -235 -233 233
c-127 127 -234 232 -237 232 -3 0 -55 -50 -115 -110z"/>
</g>
</svg>
