<?xml version="1.0" standalone="no"?>
<!DOCTYPE svg PUBLIC "-//W3C//DTD SVG 20010904//EN"
 "http://www.w3.org/TR/2001/REC-SVG-20010904/DTD/svg10.dtd">
<svg version="1.0" xmlns="http://www.w3.org/2000/svg"
 width="512.000000pt" height="512.000000pt" viewBox="0 0 512.000000 512.000000"
 preserveAspectRatio="xMidYMid meet">

<g transform="translate(0.000000,512.000000) scale(0.100000,-0.100000)"
   fill="#e4e6eb" stroke="none">
<path d="M2412 5100 c-198 -53 -350 -199 -418 -400 -14 -40 -19 -85 -19 -167
l0 -112 -315 -146 c-173 -80 -319 -145 -323 -145 -5 0 -35 20 -67 45 -72 55
-172 106 -270 137 -64 20 -95 23 -215 22 -131 0 -146 -2 -235 -33 -121 -41
-214 -96 -301 -178 -168 -159 -260 -388 -246 -613 8 -124 27 -195 82 -305 54
-110 114 -187 202 -260 64 -54 216 -136 276 -151 l27 -6 0 -317 0 -316 -66
-34 c-201 -104 -324 -307 -324 -535 0 -72 33 -195 72 -269 42 -80 155 -193
233 -233 107 -56 159 -69 280 -69 131 0 220 25 317 87 l61 39 301 -140 301
-140 6 -98 c15 -226 94 -400 248 -546 245 -230 604 -281 901 -127 154 81 269
199 345 355 50 103 72 191 83 324 l7 94 299 139 299 139 37 -24 c202 -134 458
-141 650 -16 172 111 273 292 273 489 0 106 -15 174 -61 270 -47 98 -158 211
-254 261 l-68 34 0 316 0 317 53 17 c186 60 362 216 452 401 105 214 105 477
1 689 -176 359 -593 531 -969 400 -78 -28 -189 -90 -241 -136 -19 -16 -38 -29
-44 -29 -8 0 -471 211 -602 275 l-36 17 0 101 c0 69 -6 121 -18 162 -58 194
-199 342 -386 405 -94 32 -233 36 -328 10z m223 -399 c65 -29 115 -104 115
-171 0 -96 -94 -189 -190 -190 -49 0 -118 37 -154 83 -28 35 -31 46 -31 106 0
55 4 74 25 103 54 79 151 108 235 69z m773 -843 c84 -39 155 -74 157 -78 3 -4
-2 -38 -10 -76 -29 -137 -13 -316 40 -447 86 -212 285 -396 493 -458 l42 -12
0 -316 0 -316 -73 -37 c-97 -51 -161 -108 -219 -196 -69 -106 -91 -181 -94
-322 l-2 -115 -259 -122 c-142 -67 -263 -122 -268 -122 -6 -1 -27 21 -48 49
-55 74 -160 156 -262 205 -158 76 -312 99 -474 71 -181 -32 -304 -97 -438
-233 l-93 -94 -262 122 -263 122 -1 106 c0 125 -23 212 -81 310 -49 82 -151
177 -236 221 l-67 35 0 316 0 317 52 17 c79 25 176 79 245 135 228 184 339
505 272 787 -7 29 -11 55 -8 57 11 9 619 286 629 286 7 0 25 -10 42 -21 94
-67 212 -103 338 -103 129 0 233 33 339 107 l35 24 160 -74 c89 -41 230 -106
314 -145z m-2517 66 c79 -24 118 -46 172 -100 222 -223 100 -600 -211 -655
-260 -46 -496 197 -442 456 46 224 268 362 481 299z m3533 1 c337 -88 394
-550 88 -713 -199 -106 -440 -27 -535 177 -138 295 131 618 447 536z m-3582
-2145 c76 -21 137 -102 138 -180 0 -49 -37 -118 -83 -154 -35 -28 -46 -31
-106 -31 -55 0 -74 5 -102 24 -130 89 -109 284 37 336 48 17 68 18 116 5z
m3592 -28 c100 -70 108 -218 17 -295 -123 -104 -311 -18 -311 141 0 151 171
241 294 154z m-1803 -582 c157 -30 280 -156 309 -317 46 -262 -195 -497 -455
-443 -257 53 -387 326 -269 561 47 94 158 177 264 198 63 12 90 12 151 1z"/>
</g>
</svg>
