<?xml version="1.0" standalone="no"?>
<!DOCTYPE svg PUBLIC "-//W3C//DTD SVG 20010904//EN"
 "http://www.w3.org/TR/2001/REC-SVG-20010904/DTD/svg10.dtd">
<svg version="1.0" xmlns="http://www.w3.org/2000/svg"
 width="512.000000pt" height="512.000000pt" viewBox="0 0 512.000000 512.000000"
 preserveAspectRatio="xMidYMid meet">

<g transform="translate(0.000000,512.000000) scale(0.100000,-0.100000)"
   fill="white" stroke="none">
<path d="M1296 4674 c-450 -89 -791 -445 -856 -893 -17 -113 -8 -313 19 -413
130 -494 585 -832 1085 -805 470 26 861 345 983 802 23 88 26 119 26 255 0
173 -12 245 -66 388 -48 128 -120 242 -219 347 -159 168 -337 268 -563 316
-108 22 -304 24 -409 3z m304 -418 c205 -37 371 -160 460 -341 58 -117 73
-188 67 -315 -8 -175 -64 -306 -183 -424 -118 -119 -249 -175 -424 -183 -127
-6 -198 9 -315 67 -188 92 -314 269 -345 485 -28 195 36 381 185 531 65 66 96
89 165 122 138 65 253 83 390 58z"/>
<path d="M3150 4261 c-105 -34 -160 -106 -160 -211 0 -58 23 -111 67 -152 104
-99 273 -65 334 67 34 74 19 176 -34 233 -47 51 -149 82 -207 63z"/>
<path d="M3905 3821 c-130 -33 -219 -84 -314 -181 -112 -116 -174 -272 -174
-440 0 -115 20 -197 74 -301 101 -194 303 -322 529 -336 183 -11 351 55 485
191 127 128 185 267 185 446 0 179 -58 318 -185 446 -63 64 -98 90 -165 123
-144 70 -292 88 -435 52z m267 -447 c162 -113 97 -366 -97 -382 -197 -16 -310
209 -177 352 69 74 193 87 274 30z"/>
<path d="M1230 2341 c-105 -34 -160 -106 -160 -211 0 -58 23 -111 67 -152 104
-99 273 -65 334 67 34 74 19 176 -34 233 -47 51 -149 82 -207 63z"/>
<path d="M2383 2115 c-169 -39 -303 -114 -428 -239 -163 -164 -245 -364 -245
-596 0 -470 377 -850 845 -850 239 0 438 82 606 249 167 168 249 367 249 604
0 119 -16 201 -59 312 -43 112 -101 196 -201 295 -100 99 -191 154 -330 201
-86 29 -108 32 -235 35 -95 2 -160 -1 -202 -11z m248 -415 c226 -43 384 -258
350 -477 -30 -191 -173 -334 -364 -364 -223 -35 -437 126 -478 359 -31 172 73
367 235 443 98 46 166 56 257 39z"/>
<path d="M3982 1909 c-19 -6 -53 -30 -77 -53 -70 -70 -83 -155 -39 -245 67
-134 244 -158 342 -45 146 165 -11 404 -226 343z"/>
</g>
</svg>
