<?xml version="1.0" standalone="no"?>
<!DOCTYPE svg PUBLIC "-//W3C//DTD SVG 20010904//EN"
 "http://www.w3.org/TR/2001/REC-SVG-20010904/DTD/svg10.dtd">
<svg version="1.0" xmlns="http://www.w3.org/2000/svg"
 width="512.000000pt" height="512.000000pt" viewBox="0 0 512.000000 512.000000"
 preserveAspectRatio="xMidYMid meet">

<g transform="translate(0.000000,512.000000) scale(0.100000,-0.100000)"
   fill="#e4e6eb" stroke="none">
<path d="M2315 5109 c-492 -50 -977 -248 -1355 -552 -111 -90 -281 -258 -375
-372 -254 -308 -454 -722 -529 -1095 -43 -217 -51 -295 -50 -535 0 -264 14
-381 74 -620 48 -191 93 -312 185 -500 132 -269 269 -460 489 -681 223 -222
411 -357 691 -494 247 -122 505 -200 800 -242 118 -17 512 -17 630 0 416 60
764 190 1097 412 1071 712 1451 2099 888 3245 -88 181 -137 260 -259 425 -98
132 -335 375 -461 472 -368 284 -762 452 -1220 523 -125 19 -477 28 -605 14z
m635 -203 c495 -85 932 -309 1281 -656 200 -200 339 -392 459 -635 114 -232
187 -460 226 -715 25 -160 25 -509 1 -675 -130 -871 -715 -1592 -1541 -1899
-130 -49 -333 -100 -481 -123 -166 -24 -515 -24 -675 1 -934 145 -1687 802
-1946 1698 -386 1337 464 2726 1831 2993 192 37 279 44 500 40 155 -3 232 -9
345 -29z"/>
<path d="M2340 4499 c-837 -96 -1520 -718 -1689 -1539 -24 -115 -41 -265 -41
-359 0 -59 4 -74 24 -98 l24 -28 241 -3 242 -3 29 30 c32 31 38 67 18 104 -23
44 -35 46 -221 47 l-177 0 6 58 c11 110 36 248 61 332 27 93 99 280 118 306
11 15 27 8 156 -70 82 -49 156 -86 170 -86 63 0 109 83 75 134 -8 14 -76 61
-150 106 -75 44 -138 85 -141 91 -12 18 109 172 225 289 103 102 262 230 286
230 5 0 45 -62 89 -136 86 -146 111 -174 157 -174 39 0 88 48 88 86 0 18 -32
83 -85 170 -47 79 -85 145 -85 148 0 9 126 64 231 101 104 36 249 70 344 80
33 3 77 8 98 11 l37 6 0 -179 c1 -186 3 -198 47 -221 37 -20 73 -14 104 17
l29 29 0 176 0 176 58 -6 c110 -11 248 -36 332 -61 93 -27 280 -99 306 -118
15 -11 8 -27 -70 -156 -53 -90 -86 -155 -86 -173 0 -37 49 -86 87 -86 47 0 68
23 154 170 46 77 87 140 92 140 19 0 196 -142 276 -221 118 -117 255 -290 240
-302 -2 -2 -62 -39 -134 -81 -159 -95 -175 -109 -175 -154 0 -43 46 -92 86
-92 18 0 83 33 173 86 129 78 145 85 156 70 24 -33 96 -228 125 -338 22 -85
60 -308 60 -354 0 -2 -80 -4 -177 -4 -186 -1 -198 -3 -221 -47 -20 -37 -14
-73 18 -104 l29 -30 240 3 c304 4 287 -7 284 172 -5 391 -158 808 -414 1129
-79 99 -246 262 -344 336 -351 266 -767 404 -1202 400 -70 -1 -162 -5 -203
-10z"/>
<path d="M2504 3047 c-25 -22 -34 -56 -129 -488 l-102 -464 -50 -66 c-58 -76
-82 -137 -90 -229 -11 -125 36 -255 124 -344 161 -162 429 -164 597 -6 167
158 180 414 29 598 -35 43 -38 52 -138 510 -95 433 -104 467 -129 489 -15 13
-40 23 -56 23 -16 0 -41 -10 -56 -23z m100 -687 c20 -91 36 -167 36 -170 0 -3
-36 -5 -81 -5 -75 0 -80 1 -76 20 47 229 72 334 77 328 4 -5 23 -82 44 -173z
m63 -379 c239 -121 159 -466 -107 -466 -176 0 -293 161 -236 323 27 76 77 126
161 159 42 17 133 9 182 -16z"/>
<path d="M1569 1047 c-44 -34 -50 -93 -15 -134 l24 -28 966 0 c961 0 966 0
986 21 11 11 23 36 26 55 5 28 1 41 -21 67 l-27 32 -961 0 c-741 -1 -966 -3
-978 -13z"/>
<path d="M2119 591 c-20 -20 -29 -39 -29 -61 0 -22 9 -41 29 -61 l29 -29 401
0 400 0 26 23 c15 13 28 37 32 59 5 32 1 41 -25 68 l-30 30 -402 0 -402 0 -29
-29z"/>
</g>
</svg>
