<?xml version="1.0" standalone="no"?>
<!DOCTYPE svg PUBLIC "-//W3C//DTD SVG 20010904//EN"
 "http://www.w3.org/TR/2001/REC-SVG-20010904/DTD/svg10.dtd">
<svg version="1.0" xmlns="http://www.w3.org/2000/svg"
 width="512.000000pt" height="512.000000pt" viewBox="0 0 512.000000 512.000000"
 preserveAspectRatio="xMidYMid meet">

<g transform="translate(0.000000,512.000000) scale(0.100000,-0.100000)"
   fill="white" stroke="none">
<path d="M2106 5104 c-221 -49 -412 -198 -510 -397 -85 -173 -79 -74 -83
-1385 l-4 -1163 -42 -37 c-153 -135 -270 -305 -343 -499 -113 -298 -93 -656
52 -946 127 -253 313 -436 568 -558 453 -215 982 -131 1343 213 396 379 493
948 245 1432 -61 118 -140 223 -245 324 l-87 82 -2 1178 -3 1177 -27 80 c-81
237 -259 409 -503 485 -94 29 -263 36 -359 14z m305 -313 c120 -45 215 -137
262 -251 l22 -55 5 -1220 c6 -1396 -6 -1247 106 -1330 160 -117 285 -308 336
-512 31 -125 31 -314 -1 -432 -72 -271 -245 -483 -492 -600 -137 -66 -220 -84
-389 -84 -175 -1 -253 17 -405 92 -231 114 -408 331 -477 586 -31 113 -31 335
0 450 46 170 160 354 283 456 29 24 75 65 101 90 l48 46 0 1164 c0 687 5 1195
10 1239 24 181 155 330 335 377 68 17 187 10 256 -16z"/>
<path d="M2194 3910 c-25 -12 -49 -35 -62 -59 l-22 -39 0 -1005 0 -1005 -37
-13 c-300 -97 -481 -421 -403 -723 57 -224 222 -389 446 -446 329 -84 669 131
740 470 29 137 1 302 -72 427 -64 110 -197 221 -316 264 l-58 22 -2 1013 c-3
1005 -3 1013 -24 1040 -51 70 -121 89 -190 54z m200 -2424 c109 -54 170 -152
170 -276 0 -125 -61 -222 -172 -277 -47 -23 -70 -28 -132 -28 -124 1 -220 59
-278 170 -36 69 -38 186 -4 260 73 159 260 227 416 151z"/>
<path d="M3405 4515 c-117 -42 -136 -200 -31 -264 32 -20 47 -21 313 -21 274
0 281 0 313 23 95 64 90 193 -11 252 -31 18 -54 20 -289 22 -202 2 -263 0
-295 -12z"/>
<path d="M3423 3921 c-47 -12 -80 -37 -99 -74 -36 -68 -13 -160 49 -197 30
-19 52 -20 313 -20 275 0 282 0 314 23 95 64 90 193 -11 252 -31 18 -54 20
-284 22 -137 1 -265 -2 -282 -6z"/>
<path d="M3423 3321 c-47 -12 -80 -37 -99 -74 -36 -68 -13 -160 49 -197 30
-19 52 -20 313 -20 275 0 282 0 314 23 95 64 90 193 -11 252 -31 18 -54 20
-284 22 -137 1 -265 -2 -282 -6z"/>
<path d="M3423 2721 c-47 -12 -80 -37 -99 -74 -36 -68 -13 -160 49 -197 30
-19 52 -20 313 -20 275 0 282 0 314 23 95 64 90 193 -11 252 -31 18 -54 20
-284 22 -137 1 -265 -2 -282 -6z"/>
</g>
</svg>
