<?xml version="1.0" standalone="no"?>
<!DOCTYPE svg PUBLIC "-//W3C//DTD SVG 20010904//EN"
 "http://www.w3.org/TR/2001/REC-SVG-20010904/DTD/svg10.dtd">
<svg version="1.0" xmlns="http://www.w3.org/2000/svg"
 width="512.000000pt" height="512.000000pt" viewBox="0 0 512.000000 512.000000"
 preserveAspectRatio="xMidYMid meet">

<g transform="translate(0.000000,512.000000) scale(0.100000,-0.100000)"
   fill="white" stroke="none">
<path d="M1770 4353 c-50 -26 -80 -76 -80 -133 0 -57 30 -107 80 -133 33 -16
85 -17 757 -15 716 3 722 3 750 24 86 65 86 183 0 248 -28 21 -34 21 -750 24
-672 2 -724 1 -757 -15z"/>
<path d="M4257 4219 c-91 -9 -224 -53 -304 -100 -32 -19 -88 -63 -125 -99 -68
-66 -68 -66 -68 -121 0 -73 28 -116 92 -143 62 -25 103 -14 186 53 101 82 187
112 311 112 355 -1 582 -382 413 -695 -35 -65 -124 -154 -188 -188 -114 -61
-26 -58 -1686 -58 -1260 0 -1524 -2 -1551 -14 -43 -18 -85 -68 -93 -112 -9
-48 19 -118 59 -146 l32 -23 1580 0 1580 0 80 27 c261 90 450 288 521 549 25
88 25 290 1 379 -24 92 -97 234 -157 307 -162 196 -417 298 -683 272z"/>
<path d="M84 3640 c-109 -54 -109 -212 0 -264 31 -14 154 -16 1313 -16 1258 0
1279 0 1311 20 101 62 95 212 -11 260 -41 19 -81 20 -1307 20 -1249 0 -1266 0
-1306 -20z"/>
<path d="M554 2966 c-110 -48 -118 -206 -14 -265 33 -18 54 -21 167 -21 119 0
133 2 164 23 96 64 90 203 -11 255 -39 19 -59 22 -160 22 -74 -1 -126 -6 -146
-14z"/>
<path d="M95 2286 c-90 -39 -122 -157 -63 -232 45 -56 -6 -54 1195 -54 913 0
1120 -3 1174 -14 242 -52 409 -288 371 -528 -57 -370 -483 -531 -774 -294 -69
56 -89 66 -133 66 -99 0 -169 -90 -144 -184 21 -80 177 -199 326 -251 336
-117 702 5 899 300 294 443 72 1032 -445 1178 -76 22 -81 22 -1226 24 -946 2
-1155 0 -1180 -11z"/>
<path d="M3384 2289 c-42 -12 -91 -69 -100 -114 -9 -49 19 -119 59 -147 32
-23 35 -23 467 -28 487 -6 471 -3 554 -80 174 -161 58 -456 -180 -459 -66 -1
-126 20 -180 64 -88 72 -154 74 -227 7 -66 -62 -56 -154 24 -226 191 -172 478
-194 691 -52 156 103 257 290 258 477 0 75 -32 196 -72 271 -63 119 -199 229
-338 274 -49 16 -104 18 -490 20 -252 2 -448 -1 -466 -7z"/>
</g>
</svg>
